<svg 
 xmlns="http://www.w3.org/2000/svg"
 xmlns:xlink="http://www.w3.org/1999/xlink"
 width="127px" height="113px">
<path fill-rule="evenodd"  fill="rgb(255, 229, 0)"
 d="M36.648,112.852 C33.883,112.852 30.489,110.886 29.106,108.485 L1.895,61.216 C0.513,58.815 0.513,54.885 1.895,52.482 L29.106,5.216 C30.489,2.813 33.883,0.848 36.648,0.848 L91.068,0.848 C93.834,0.848 97.227,2.813 98.610,5.216 L125.821,52.482 C127.204,54.885 127.204,58.815 125.821,61.216 L98.610,108.485 C97.227,110.886 93.834,112.852 91.068,112.852 L36.648,112.852 Z"/>
<path fill-rule="evenodd"  fill="rgb(255, 255, 255)"
 d="M50.161,39.349 L48.851,45.843 L75.504,45.843 L74.671,50.036 L48.003,50.036 L46.712,56.524 L73.360,56.524 L71.873,63.930 L61.134,67.458 L51.825,63.930 L52.463,60.717 L45.915,60.717 L44.358,68.510 L59.754,74.351 L77.502,68.510 L83.358,39.349 L50.161,39.349 Z"/>
<path fill-rule="evenodd"  opacity="0.498" fill="rgb(255, 255, 255)"
 d="M98.416,108.048 L125.475,61.179 C126.850,58.798 126.850,54.902 125.475,52.519 L98.416,5.653 C97.041,3.269 93.666,1.322 90.916,1.322 L36.801,1.322 C35.326,1.322 33.682,1.893 32.252,2.778 L95.426,110.946 C96.680,110.177 97.771,109.165 98.416,108.048 Z"/>
</svg>