<svg 
 xmlns="http://www.w3.org/2000/svg"
 xmlns:xlink="http://www.w3.org/1999/xlink"
 width="127px" height="113px">
<path fill-rule="evenodd"  fill="rgb(255, 229, 0)"
 d="M36.555,112.852 C33.789,112.852 30.395,110.886 29.013,108.485 L1.802,61.216 C0.419,58.815 0.419,54.885 1.802,52.482 L29.013,5.216 C30.395,2.813 33.789,0.848 36.555,0.848 L90.975,0.848 C93.740,0.848 97.134,2.813 98.517,5.216 L125.727,52.482 C127.110,54.885 127.110,58.815 125.727,61.216 L98.517,108.485 C97.134,110.886 93.740,112.852 90.975,112.852 L36.555,112.852 Z"/>
<path fill-rule="evenodd"  fill="rgb(255, 255, 255)"
 d="M84.240,43.203 L76.219,43.203 L75.329,40.450 C75.057,39.642 74.242,39.049 73.389,39.036 L55.502,39.038 C54.653,39.049 53.845,39.644 53.568,40.460 L52.680,43.203 L44.658,43.203 C43.719,43.206 42.951,43.980 42.949,44.933 L42.949,72.311 C42.951,73.261 43.719,74.037 44.658,74.037 L84.240,74.037 C85.180,74.037 85.947,73.261 85.949,72.309 L85.949,44.931 C85.947,43.980 85.180,43.206 84.240,43.203 ZM64.449,52.364 C60.846,52.370 57.906,55.338 57.899,58.980 C57.906,62.620 60.848,65.589 64.451,65.594 C68.055,65.589 70.993,62.620 70.998,58.979 C70.993,55.338 68.055,52.370 64.449,52.364 Z"/>
<path fill-rule="evenodd"  opacity="0.498" fill="rgb(255, 255, 255)"
 d="M98.322,108.048 L125.381,61.179 C126.756,58.798 126.756,54.902 125.381,52.519 L98.322,5.653 C96.947,3.269 93.572,1.322 90.822,1.322 L36.707,1.322 C35.342,1.322 33.822,1.804 32.469,2.580 L95.641,110.746 C96.762,110.002 97.731,109.072 98.322,108.048 Z"/>
</svg>