<svg 
 xmlns="http://www.w3.org/2000/svg"
 xmlns:xlink="http://www.w3.org/1999/xlink"
 width="390px" height="440px">
<path fill-rule="evenodd"  fill="rgb(33, 42, 49)"
 d="M197.000,79.000 L377.000,79.000 L377.000,367.000 L197.000,367.000 L197.000,79.000 Z"/>
<path fill-rule="evenodd"  fill="rgb(251, 251, 251)"
 d="M375.438,40.010 L198.559,40.010 C190.554,40.010 184.001,46.533 184.001,54.510 L184.001,398.508 C184.001,406.485 190.554,413.008 198.559,413.008 L375.438,413.008 C383.443,413.008 389.996,406.485 389.996,398.508 L389.996,54.510 C389.996,46.533 383.443,40.010 375.438,40.010 ZM377.119,366.835 L196.878,366.835 L196.878,79.834 L377.119,79.834 L377.119,366.835 Z"/>
<path fill-rule="evenodd"  fill="rgb(240, 240, 240)"
 d="M299.395,390.199 C299.395,397.021 293.843,402.552 286.999,402.552 C280.147,402.552 274.602,397.021 274.602,390.199 C274.602,383.379 280.147,377.842 286.999,377.842 C293.843,377.842 299.395,383.379 299.395,390.199 Z"/>
<path fill-rule="evenodd"  fill="rgb(240, 240, 240)"
 d="M269.473,61.146 C269.473,63.160 267.840,64.794 265.818,64.794 C263.803,64.794 262.163,63.160 262.163,61.146 C262.163,59.135 263.803,57.501 265.818,57.501 C267.840,57.501 269.473,59.135 269.473,61.146 Z"/>
<path fill-rule="evenodd"  fill="rgb(240, 240, 240)"
 d="M311.834,62.226 C311.834,63.202 311.033,63.999 310.055,63.999 L279.049,63.999 C278.070,63.999 277.270,63.202 277.270,62.226 L277.270,60.077 C277.270,59.102 278.070,58.305 279.049,58.305 L310.055,58.305 C311.033,58.305 311.834,59.102 311.834,60.077 L311.834,62.226 Z"/>
<path fill-rule="evenodd"  opacity="0.102" fill="rgb(255, 255, 255)"
 d="M198.559,40.010 C190.554,40.010 184.001,46.533 184.001,54.510 L184.001,398.508 C184.001,406.485 190.554,413.008 198.559,413.008 L211.477,413.008 L364.945,40.010 L198.559,40.010 Z"/>
<path fill-rule="evenodd"  fill="rgb(33, 42, 49)"
 d="M13.000,79.000 L193.000,79.000 L193.000,367.000 L13.000,367.000 L13.000,79.000 Z"/>
<path fill-rule="evenodd"  fill="rgb(251, 251, 251)"
 d="M191.438,40.010 L14.559,40.010 C6.554,40.010 0.001,46.533 0.001,54.510 L0.001,398.508 C0.001,406.485 6.554,413.008 14.559,413.008 L191.438,413.008 C199.443,413.008 205.996,406.485 205.996,398.508 L205.996,54.510 C205.996,46.533 199.443,40.010 191.438,40.010 ZM193.119,366.835 L12.878,366.835 L12.878,79.834 L193.119,79.834 L193.119,366.835 Z"/>
<path fill-rule="evenodd"  fill="rgb(240, 240, 240)"
 d="M115.395,390.199 C115.395,397.021 109.843,402.552 102.999,402.552 C96.147,402.552 90.602,397.021 90.602,390.199 C90.602,383.379 96.147,377.842 102.999,377.842 C109.843,377.842 115.395,383.379 115.395,390.199 Z"/>
<path fill-rule="evenodd"  fill="rgb(240, 240, 240)"
 d="M85.473,61.146 C85.473,63.160 83.840,64.794 81.818,64.794 C79.803,64.794 78.163,63.160 78.163,61.146 C78.163,59.135 79.803,57.501 81.818,57.501 C83.840,57.501 85.473,59.135 85.473,61.146 Z"/>
<path fill-rule="evenodd"  fill="rgb(240, 240, 240)"
 d="M127.834,62.226 C127.834,63.202 127.033,63.999 126.055,63.999 L95.049,63.999 C94.070,63.999 93.270,63.202 93.270,62.226 L93.270,60.077 C93.270,59.102 94.070,58.305 95.049,58.305 L126.055,58.305 C127.033,58.305 127.834,59.102 127.834,60.077 L127.834,62.226 Z"/>
<path fill-rule="evenodd"  opacity="0.102" fill="rgb(255, 255, 255)"
 d="M14.559,40.010 C6.554,40.010 0.001,46.533 0.001,54.510 L0.001,398.508 C0.001,406.485 6.554,413.008 14.559,413.008 L27.477,413.008 L180.945,40.010 L14.559,40.010 Z"/>
<path fill-rule="evenodd"  fill="rgb(33, 42, 49)"
 d="M87.000,47.000 L299.000,47.000 L299.000,386.000 L87.000,386.000 L87.000,47.000 Z"/>
<path fill-rule="evenodd"  fill="rgb(251, 251, 251)"
 d="M296.893,0.981 L89.104,0.981 C79.699,0.981 72.002,8.658 72.002,18.047 L72.002,422.943 C72.002,432.332 79.699,440.010 89.104,440.010 L296.893,440.010 C306.297,440.010 313.995,432.332 313.995,422.943 L313.995,18.047 C313.995,8.658 306.297,0.981 296.893,0.981 ZM298.868,385.662 L87.128,385.662 L87.128,47.855 L298.868,47.855 L298.868,385.662 Z"/>
<path fill-rule="evenodd"  fill="rgb(240, 240, 240)"
 d="M207.561,413.162 C207.561,421.192 201.039,427.702 192.998,427.702 C184.949,427.702 178.435,421.192 178.435,413.162 C178.435,405.136 184.949,398.619 192.998,398.619 C201.039,398.619 207.561,405.136 207.561,413.162 Z"/>
<path fill-rule="evenodd"  fill="rgb(240, 240, 240)"
 d="M172.410,25.858 C172.410,28.229 170.492,30.152 168.117,30.152 C165.749,30.152 163.823,28.229 163.823,25.858 C163.823,23.492 165.749,21.568 168.117,21.568 C170.492,21.568 172.410,23.492 172.410,25.858 Z"/>
<path fill-rule="evenodd"  fill="rgb(240, 240, 240)"
 d="M222.174,27.130 C222.174,28.278 221.233,29.217 220.084,29.217 L183.659,29.217 C182.510,29.217 181.570,28.278 181.570,27.130 L181.570,24.600 C181.570,23.453 182.510,22.514 183.659,22.514 L220.084,22.514 C221.233,22.514 222.174,23.453 222.174,24.600 L222.174,27.130 Z"/>
<path fill-rule="evenodd"  opacity="0.102" fill="rgb(255, 255, 255)"
 d="M89.104,0.981 C79.699,0.981 72.002,8.658 72.002,18.047 L72.002,422.943 C72.002,432.332 79.699,440.010 89.104,440.010 L104.279,440.010 L284.566,0.981 L89.104,0.981 Z"/>
</svg>