<svg 
 xmlns="http://www.w3.org/2000/svg"
 xmlns:xlink="http://www.w3.org/1999/xlink"
 width="981px" height="372px">
<defs>
<filter filterUnits="userSpaceOnUse" id="Filter_0" x="-483px" y="-4695px" width="1950px" height="9109px"  >
    <feOffset in="SourceAlpha" dx="0" dy="7" />
    <feGaussianBlur result="blurOut" stdDeviation="2.828" />
    <feFlood flood-color="rgb(43, 46, 51)" result="floodOut" />
    <feComposite operator="atop" in="floodOut" in2="blurOut" />
    <feComponentTransfer><feFuncA type="linear" slope="0.25"/></feComponentTransfer>
    <feMerge>
    <feMergeNode/>
    <feMergeNode in="SourceGraphic"/>
  </feMerge>
</filter>

</defs>
<path fill-rule="evenodd"  fill="rgb(237, 242, 246)"
 d="M512.000,85.000 L981.000,85.000 L981.000,343.000 L512.000,343.000 L512.000,85.000 Z"/>
<path fill-rule="evenodd"  fill="rgb(255, 230, 0)"
 d="M512.000,59.000 L512.000,85.054 L981.000,85.054 L981.000,59.000 L512.000,59.000 Z"/>
<path fill-rule="evenodd"  fill="rgb(255, 255, 255)"
 d="M981.000,85.047 L512.000,85.047 L512.000,85.569 L981.000,85.569 L981.000,85.047 Z"/>
<path fill-rule="evenodd"  fill="rgb(255, 176, 0)"
 d="M973.058,67.074 L973.058,67.262 L973.064,72.139 L973.065,72.593 L972.743,72.272 L971.458,70.988 L970.240,72.208 C970.046,72.402 969.787,72.508 969.510,72.508 C969.233,72.508 968.974,72.402 968.780,72.208 L981.000,84.430 L981.000,75.017 L973.058,67.074 Z"/>
<path fill-rule="evenodd"  fill="rgb(255, 255, 255)"
 d="M973.065,72.593 L972.743,72.272 L971.458,70.988 L970.240,72.208 C970.046,72.402 969.787,72.508 969.510,72.508 C969.233,72.508 968.974,72.402 968.780,72.208 L967.932,71.359 C967.738,71.165 967.630,70.906 967.630,70.630 C967.630,70.352 967.738,70.093 967.932,69.897 L969.149,68.680 L967.866,67.395 L967.546,67.074 L967.999,67.074 L972.870,67.074 L973.058,67.074 L973.058,67.262 L973.064,72.139 L973.065,72.593 L973.065,72.593 Z"/>
<path fill-rule="evenodd"  fill="rgb(107, 113, 117)"
 d="M972.875,72.139 L972.870,67.262 L967.999,67.262 L969.415,68.679 L968.065,70.032 C967.736,70.361 967.736,70.897 968.065,71.227 L968.911,72.074 C969.240,72.402 969.779,72.403 970.109,72.074 L971.459,70.723 L972.875,72.139 Z"/>
<path fill-rule="evenodd"  fill="rgb(60, 62, 66)"
 d="M972.870,67.738 L972.870,67.262 L967.999,67.262 L968.477,67.740 L972.870,67.738 ZM968.065,70.032 C967.736,70.361 967.736,70.897 968.065,71.227 L968.405,71.567 C968.096,71.248 968.098,70.735 968.414,70.420 L969.722,69.112 L969.415,68.679 L968.065,70.032 Z"/>
<path fill-rule="evenodd"  fill="rgb(255, 176, 0)"
 d="M980.612,85.048 L968.273,72.706 C968.467,72.903 968.573,73.162 968.573,73.438 C968.573,73.716 968.467,73.974 968.273,74.169 L967.054,75.388 L968.339,76.671 L968.659,76.994 L968.206,76.993 L963.329,76.988 L963.141,76.988 L971.199,85.048 L980.612,85.048 Z"/>
<path fill-rule="evenodd"  fill="rgb(255, 255, 255)"
 d="M968.659,76.994 L968.339,76.671 L967.054,75.388 L968.273,74.169 C968.467,73.974 968.573,73.716 968.573,73.438 C968.573,73.162 968.467,72.903 968.273,72.706 L967.426,71.860 C967.231,71.666 966.974,71.559 966.695,71.559 C966.419,71.559 966.158,71.666 965.964,71.860 L964.747,73.078 L963.461,71.794 L963.142,71.474 L963.142,71.928 L963.141,76.799 L963.141,76.988 L963.329,76.988 L968.206,76.993 L968.659,76.994 L968.659,76.994 Z"/>
<path fill-rule="evenodd"  fill="rgb(107, 113, 117)"
 d="M968.206,76.805 L963.329,76.799 L963.329,71.928 L964.747,73.343 L966.097,71.994 C966.426,71.665 966.965,71.665 967.293,71.994 L968.139,72.840 C968.469,73.170 968.469,73.708 968.139,74.036 L966.788,75.388 L968.206,76.805 Z"/>
<path fill-rule="evenodd"  fill="rgb(60, 62, 66)"
 d="M963.806,72.405 L963.329,71.928 L963.329,76.799 L963.804,76.799 L963.806,72.405 ZM964.747,73.343 L965.178,73.650 L966.487,72.342 C966.802,72.027 967.313,72.025 967.633,72.333 L967.293,71.994 C966.965,71.665 966.426,71.665 966.097,71.994 L964.747,73.343 Z"/>
<path fill-rule="evenodd"  fill="rgb(255, 176, 0)"
 d="M561.238,85.048 L546.104,69.912 L546.100,69.912 C546.531,70.528 546.789,71.275 546.789,72.085 C546.789,74.182 545.089,75.882 542.992,75.882 C541.275,75.882 539.841,74.734 539.372,73.169 L535.929,69.725 L535.927,69.726 C536.446,70.376 536.769,71.188 536.769,72.085 C536.769,74.182 535.069,75.882 532.973,75.882 C531.322,75.882 529.931,74.821 529.409,73.349 L525.816,69.756 L525.810,69.759 C526.313,70.403 526.625,71.204 526.625,72.085 C526.625,74.182 524.925,75.882 522.829,75.882 C521.723,75.882 520.737,75.401 520.043,74.646 L520.028,74.674 L530.401,85.048 L561.238,85.048 Z"/>
<path fill-rule="evenodd"  fill="rgb(92, 150, 0)"
 d="M546.789,72.085 C546.789,74.182 545.089,75.882 542.992,75.882 C540.896,75.882 539.196,74.182 539.196,72.085 C539.196,69.987 540.896,68.287 542.992,68.287 C545.089,68.287 546.789,69.987 546.789,72.085 Z"/>
<path fill-rule="evenodd"  fill="rgb(147, 229, 31)"
 d="M546.214,72.085 C546.214,73.864 544.772,75.307 542.992,75.307 C541.213,75.307 539.771,73.864 539.771,72.085 C539.771,70.305 541.213,68.862 542.992,68.862 C544.772,68.862 546.214,70.305 546.214,72.085 Z"/>
<path fill-rule="evenodd"  fill="rgb(255, 119, 18)"
 d="M536.769,72.085 C536.769,74.182 535.069,75.882 532.973,75.882 C530.876,75.882 529.176,74.182 529.176,72.085 C529.176,69.987 530.876,68.287 532.973,68.287 C535.069,68.287 536.769,69.987 536.769,72.085 Z"/>
<path fill-rule="evenodd"  fill="rgb(255, 181, 16)"
 d="M536.194,72.085 C536.194,73.864 534.752,75.307 532.973,75.307 C531.193,75.307 529.751,73.864 529.751,72.085 C529.751,70.305 531.193,68.862 532.973,68.862 C534.752,68.862 536.194,70.305 536.194,72.085 Z"/>
<path fill-rule="evenodd"  fill="rgb(191, 37, 37)"
 d="M526.625,72.085 C526.625,74.182 524.925,75.882 522.829,75.882 C520.732,75.882 519.032,74.182 519.032,72.085 C519.032,69.987 520.732,68.287 522.829,68.287 C524.925,68.287 526.625,69.987 526.625,72.085 Z"/>
<path fill-rule="evenodd"  fill="rgb(233, 92, 86)"
 d="M526.050,72.085 C526.050,73.864 524.608,75.307 522.829,75.307 C521.050,75.307 519.607,73.864 519.607,72.085 C519.607,70.305 521.050,68.862 522.829,68.862 C524.608,68.862 526.050,70.305 526.050,72.085 Z"/>
<path fill-rule="evenodd"  fill="rgb(237, 242, 246)"
 d="M-0.000,85.000 L469.000,85.000 L469.000,343.000 L-0.000,343.000 L-0.000,85.000 Z"/>
<path fill-rule="evenodd"  fill="rgb(255, 230, 0)"
 d="M-0.000,59.000 L-0.000,85.054 L469.000,85.054 L469.000,59.000 L-0.000,59.000 Z"/>
<path fill-rule="evenodd"  fill="rgb(255, 255, 255)"
 d="M469.000,85.047 L-0.000,85.047 L-0.000,85.569 L469.000,85.569 L469.000,85.047 Z"/>
<path fill-rule="evenodd"  fill="rgb(255, 176, 0)"
 d="M461.058,67.074 L461.058,67.262 L461.064,72.139 L461.065,72.593 L460.743,72.272 L459.458,70.988 L458.240,72.208 C458.046,72.402 457.787,72.508 457.510,72.508 C457.233,72.508 456.974,72.402 456.780,72.208 L469.000,84.430 L469.000,75.017 L461.058,67.074 Z"/>
<path fill-rule="evenodd"  fill="rgb(255, 255, 255)"
 d="M461.065,72.593 L460.743,72.272 L459.458,70.988 L458.240,72.208 C458.046,72.402 457.787,72.508 457.510,72.508 C457.233,72.508 456.974,72.402 456.780,72.208 L455.932,71.359 C455.738,71.165 455.630,70.906 455.630,70.630 C455.630,70.352 455.738,70.093 455.932,69.897 L457.149,68.680 L455.866,67.395 L455.546,67.074 L455.999,67.074 L460.870,67.074 L461.058,67.074 L461.058,67.262 L461.064,72.139 L461.065,72.593 L461.065,72.593 Z"/>
<path fill-rule="evenodd"  fill="rgb(107, 113, 117)"
 d="M460.875,72.139 L460.870,67.262 L455.999,67.262 L457.415,68.679 L456.065,70.032 C455.737,70.361 455.737,70.897 456.065,71.227 L456.911,72.074 C457.240,72.402 457.779,72.403 458.109,72.074 L459.459,70.723 L460.875,72.139 Z"/>
<path fill-rule="evenodd"  fill="rgb(60, 62, 66)"
 d="M460.870,67.738 L460.870,67.262 L455.999,67.262 L456.477,67.740 L460.870,67.738 ZM456.065,70.032 C455.737,70.361 455.737,70.897 456.065,71.227 L456.405,71.567 C456.096,71.248 456.098,70.735 456.414,70.420 L457.722,69.112 L457.415,68.679 L456.065,70.032 Z"/>
<path fill-rule="evenodd"  fill="rgb(255, 176, 0)"
 d="M468.612,85.048 L456.273,72.706 C456.467,72.903 456.573,73.162 456.573,73.438 C456.573,73.716 456.467,73.974 456.273,74.169 L455.054,75.388 L456.339,76.671 L456.659,76.994 L456.206,76.993 L451.329,76.988 L451.141,76.988 L459.199,85.048 L468.612,85.048 Z"/>
<path fill-rule="evenodd"  fill="rgb(255, 255, 255)"
 d="M456.659,76.994 L456.339,76.671 L455.054,75.388 L456.273,74.169 C456.467,73.974 456.573,73.716 456.573,73.438 C456.573,73.162 456.467,72.903 456.273,72.706 L455.426,71.860 C455.231,71.666 454.974,71.559 454.695,71.559 C454.419,71.559 454.158,71.666 453.963,71.860 L452.747,73.078 L451.461,71.794 L451.142,71.474 L451.142,71.928 L451.141,76.799 L451.141,76.988 L451.329,76.988 L456.206,76.993 L456.659,76.994 L456.659,76.994 Z"/>
<path fill-rule="evenodd"  fill="rgb(107, 113, 117)"
 d="M456.206,76.805 L451.329,76.799 L451.329,71.928 L452.747,73.343 L454.097,71.994 C454.426,71.665 454.965,71.665 455.293,71.994 L456.139,72.840 C456.469,73.170 456.469,73.708 456.139,74.036 L454.788,75.388 L456.206,76.805 Z"/>
<path fill-rule="evenodd"  fill="rgb(60, 62, 66)"
 d="M451.806,72.405 L451.329,71.928 L451.329,76.799 L451.804,76.799 L451.806,72.405 ZM452.747,73.343 L453.178,73.650 L454.487,72.342 C454.802,72.027 455.313,72.025 455.633,72.333 L455.293,71.994 C454.965,71.665 454.426,71.665 454.097,71.994 L452.747,73.343 Z"/>
<path fill-rule="evenodd"  fill="rgb(255, 176, 0)"
 d="M49.238,85.048 L34.104,69.912 L34.100,69.912 C34.531,70.528 34.789,71.275 34.789,72.085 C34.789,74.182 33.089,75.882 30.992,75.882 C29.275,75.882 27.841,74.734 27.372,73.169 L23.929,69.725 L23.927,69.726 C24.446,70.376 24.769,71.188 24.769,72.085 C24.769,74.182 23.070,75.882 20.973,75.882 C19.322,75.882 17.931,74.821 17.409,73.349 L13.816,69.756 L13.810,69.759 C14.313,70.403 14.625,71.204 14.625,72.085 C14.625,74.182 12.925,75.882 10.829,75.882 C9.723,75.882 8.737,75.401 8.043,74.646 L8.028,74.674 L18.401,85.048 L49.238,85.048 Z"/>
<path fill-rule="evenodd"  fill="rgb(92, 150, 0)"
 d="M34.789,72.085 C34.789,74.182 33.089,75.882 30.992,75.882 C28.896,75.882 27.196,74.182 27.196,72.085 C27.196,69.987 28.896,68.287 30.992,68.287 C33.089,68.287 34.789,69.987 34.789,72.085 Z"/>
<path fill-rule="evenodd"  fill="rgb(147, 229, 31)"
 d="M34.214,72.085 C34.214,73.864 32.772,75.307 30.992,75.307 C29.213,75.307 27.771,73.864 27.771,72.085 C27.771,70.305 29.213,68.862 30.992,68.862 C32.772,68.862 34.214,70.305 34.214,72.085 Z"/>
<path fill-rule="evenodd"  fill="rgb(255, 119, 18)"
 d="M24.769,72.085 C24.769,74.182 23.070,75.882 20.973,75.882 C18.876,75.882 17.176,74.182 17.176,72.085 C17.176,69.987 18.876,68.287 20.973,68.287 C23.070,68.287 24.769,69.987 24.769,72.085 Z"/>
<path fill-rule="evenodd"  fill="rgb(255, 181, 16)"
 d="M24.194,72.085 C24.194,73.864 22.752,75.307 20.973,75.307 C19.194,75.307 17.751,73.864 17.751,72.085 C17.751,70.305 19.194,68.862 20.973,68.862 C22.752,68.862 24.194,70.305 24.194,72.085 Z"/>
<path fill-rule="evenodd"  fill="rgb(191, 37, 37)"
 d="M14.625,72.085 C14.625,74.182 12.925,75.882 10.829,75.882 C8.732,75.882 7.032,74.182 7.032,72.085 C7.032,69.987 8.732,68.287 10.829,68.287 C12.925,68.287 14.625,69.987 14.625,72.085 Z"/>
<path fill-rule="evenodd"  fill="rgb(233, 92, 86)"
 d="M14.050,72.085 C14.050,73.864 12.608,75.307 10.829,75.307 C9.050,75.307 7.607,73.864 7.607,72.085 C7.607,70.305 9.050,68.862 10.829,68.862 C12.608,68.862 14.050,70.305 14.050,72.085 Z"/>
<g filter="url(#Filter_0)">
<path fill-rule="evenodd"  fill="rgb(237, 242, 246)"
 d="M194.000,33.000 L783.000,33.000 L783.000,357.000 L194.000,357.000 L194.000,33.000 Z"/>
<path fill-rule="evenodd"  fill="rgb(255, 230, 0)"
 d="M194.000,-0.000 L194.000,32.752 L783.000,32.752 L783.000,-0.000 L194.000,-0.000 Z"/>
<path fill-rule="evenodd"  fill="rgb(255, 255, 255)"
 d="M783.000,32.743 L194.000,32.743 L194.000,33.398 L783.000,33.398 L783.000,32.743 Z"/>
<path fill-rule="evenodd"  fill="rgb(255, 176, 0)"
 d="M773.025,10.149 L773.025,10.386 L773.033,16.517 L773.035,17.088 L772.630,16.684 L771.016,15.070 L769.487,16.602 C769.243,16.847 768.919,16.981 768.570,16.981 C768.222,16.981 767.897,16.847 767.653,16.602 L783.000,31.968 L783.000,20.134 L773.025,10.149 Z"/>
<path fill-rule="evenodd"  fill="rgb(255, 255, 255)"
 d="M773.035,17.088 L772.630,16.684 L771.016,15.070 L769.487,16.602 C769.243,16.847 768.919,16.981 768.570,16.981 C768.222,16.981 767.897,16.847 767.653,16.602 L766.588,15.536 C766.345,15.292 766.209,14.967 766.209,14.619 C766.209,14.270 766.345,13.945 766.588,13.698 L768.116,12.168 L766.505,10.553 L766.103,10.149 L766.673,10.149 L772.790,10.149 L773.025,10.149 L773.025,10.386 L773.033,16.517 L773.035,17.088 L773.035,17.088 Z"/>
<path fill-rule="evenodd"  fill="rgb(107, 113, 117)"
 d="M772.797,16.517 L772.790,10.386 L766.673,10.386 L768.451,12.167 L766.755,13.867 C766.343,14.281 766.343,14.955 766.755,15.370 L767.818,16.434 C768.231,16.847 768.908,16.848 769.322,16.434 L771.018,14.737 L772.797,16.517 Z"/>
<path fill-rule="evenodd"  fill="rgb(60, 62, 66)"
 d="M772.790,10.984 L772.790,10.386 L766.673,10.386 L767.273,10.986 L772.790,10.984 ZM766.755,13.867 C766.343,14.281 766.343,14.955 766.755,15.370 L767.182,15.797 C766.795,15.395 766.797,14.751 767.194,14.356 L768.836,12.711 L768.451,12.167 L766.755,13.867 Z"/>
<path fill-rule="evenodd"  fill="rgb(255, 176, 0)"
 d="M782.512,32.744 L767.017,17.230 C767.261,17.476 767.394,17.802 767.394,18.150 C767.394,18.499 767.261,18.824 767.017,19.068 L765.486,20.600 L767.099,22.214 L767.501,22.619 L766.932,22.618 L760.808,22.612 L760.571,22.612 L770.691,32.744 L782.512,32.744 Z"/>
<path fill-rule="evenodd"  fill="rgb(255, 255, 255)"
 d="M767.501,22.619 L767.099,22.214 L765.486,20.600 L767.017,19.068 C767.261,18.824 767.394,18.499 767.394,18.150 C767.394,17.802 767.261,17.476 767.017,17.230 L765.953,16.165 C765.708,15.922 765.385,15.787 765.035,15.787 C764.688,15.787 764.361,15.922 764.116,16.165 L762.588,17.696 L760.974,16.083 L760.573,15.680 L760.573,16.251 L760.571,22.375 L760.571,22.612 L760.808,22.612 L766.932,22.618 L767.501,22.619 L767.501,22.619 Z"/>
<path fill-rule="evenodd"  fill="rgb(107, 113, 117)"
 d="M766.932,22.381 L760.808,22.375 L760.808,16.251 L762.588,18.031 L764.284,16.334 C764.697,15.920 765.373,15.920 765.786,16.334 L766.849,17.398 C767.263,17.812 767.263,18.488 766.849,18.901 L765.152,20.601 L766.932,22.381 Z"/>
<path fill-rule="evenodd"  fill="rgb(60, 62, 66)"
 d="M761.406,16.851 L760.808,16.251 L760.808,22.375 L761.405,22.375 L761.406,16.851 ZM762.588,18.031 L763.130,18.417 L764.773,16.771 C765.169,16.376 765.811,16.373 766.213,16.760 L765.786,16.334 C765.373,15.920 764.697,15.920 764.284,16.334 L762.588,18.031 Z"/>
<path fill-rule="evenodd"  fill="rgb(255, 176, 0)"
 d="M255.836,32.744 L236.831,13.717 L236.825,13.717 C237.367,14.492 237.690,15.431 237.690,16.448 C237.690,19.084 235.556,21.221 232.922,21.221 C230.766,21.221 228.965,19.778 228.375,17.811 L224.052,13.482 L224.049,13.483 C224.701,14.300 225.107,15.321 225.107,16.448 C225.107,19.084 222.972,21.221 220.339,21.221 C218.266,21.221 216.519,19.888 215.863,18.038 L211.351,13.521 L211.343,13.525 C211.975,14.335 212.367,15.340 212.367,16.448 C212.367,19.084 210.233,21.221 207.599,21.221 C206.211,21.221 204.972,20.617 204.101,19.668 L204.082,19.702 L217.109,32.744 L255.836,32.744 Z"/>
<path fill-rule="evenodd"  fill="rgb(92, 150, 0)"
 d="M237.690,16.448 C237.690,19.084 235.556,21.221 232.922,21.221 C230.289,21.221 228.154,19.084 228.154,16.448 C228.154,13.811 230.289,11.674 232.922,11.674 C235.556,11.674 237.690,13.811 237.690,16.448 Z"/>
<path fill-rule="evenodd"  fill="rgb(147, 229, 31)"
 d="M236.968,16.448 C236.968,18.685 235.157,20.498 232.922,20.498 C230.688,20.498 228.877,18.685 228.877,16.448 C228.877,14.211 230.688,12.397 232.922,12.397 C235.157,12.397 236.968,14.211 236.968,16.448 Z"/>
<path fill-rule="evenodd"  fill="rgb(255, 119, 18)"
 d="M225.107,16.448 C225.107,19.084 222.972,21.221 220.339,21.221 C217.706,21.221 215.571,19.084 215.571,16.448 C215.571,13.811 217.706,11.674 220.339,11.674 C222.972,11.674 225.107,13.811 225.107,16.448 Z"/>
<path fill-rule="evenodd"  fill="rgb(255, 181, 16)"
 d="M224.385,16.448 C224.385,18.685 222.573,20.498 220.339,20.498 C218.104,20.498 216.293,18.685 216.293,16.448 C216.293,14.211 218.104,12.397 220.339,12.397 C222.573,12.397 224.385,14.211 224.385,16.448 Z"/>
<path fill-rule="evenodd"  fill="rgb(191, 37, 37)"
 d="M212.367,16.448 C212.367,19.084 210.233,21.221 207.599,21.221 C204.966,21.221 202.832,19.084 202.832,16.448 C202.832,13.811 204.966,11.674 207.599,11.674 C210.233,11.674 212.367,13.811 212.367,16.448 Z"/>
<path fill-rule="evenodd"  fill="rgb(233, 92, 86)"
 d="M211.645,16.448 C211.645,18.685 209.834,20.498 207.599,20.498 C205.365,20.498 203.554,18.685 203.554,16.448 C203.554,14.211 205.365,12.397 207.599,12.397 C209.834,12.397 211.645,14.211 211.645,16.448 Z"/>
</g>
</svg>