<svg 
 xmlns="http://www.w3.org/2000/svg"
 xmlns:xlink="http://www.w3.org/1999/xlink"
 width="18px" height="18px">
<path fill-rule="evenodd"  fill="rgb(255, 255, 255)"
 d="M0.066,8.942 C0.069,4.108 3.984,0.192 8.819,0.192 L8.819,0.192 C13.651,0.192 17.566,4.108 17.566,8.942 L17.566,8.942 C17.566,13.775 13.651,17.693 8.819,17.693 L8.819,17.693 C3.984,17.693 0.069,13.775 0.066,8.942 L0.066,8.942 ZM1.067,8.942 C1.075,13.222 4.537,16.684 8.819,16.692 L8.819,16.692 C13.099,16.684 16.560,13.222 16.565,8.942 L16.565,8.942 C16.560,4.662 13.099,1.198 8.819,1.193 L8.819,1.193 C4.537,1.198 1.075,4.662 1.067,8.942 L1.067,8.942 Z"/>
<path fill-rule="evenodd"  fill="rgb(255, 255, 255)"
 d="M13.131,8.442 L9.318,8.442 L9.318,4.630 L8.318,4.630 L8.318,8.442 L4.506,8.442 L4.506,9.442 L8.318,9.442 L8.318,13.255 L9.318,13.255 L9.318,9.442 L13.131,9.442 L13.131,8.442 Z"/>
</svg>