<svg 
 xmlns="http://www.w3.org/2000/svg"
 xmlns:xlink="http://www.w3.org/1999/xlink"
 width="51px" height="49px">
<path fill-rule="evenodd"  fill="rgb(255, 229, 0)"
 d="M50.762,6.035 C50.763,5.989 50.768,5.942 50.768,5.896 C50.768,5.846 50.763,5.800 50.762,5.753 L50.762,5.723 L50.761,5.723 C50.670,3.032 48.478,0.876 45.781,0.876 L45.777,0.876 L45.771,0.876 C44.734,0.876 43.769,1.196 42.973,1.742 L28.529,10.068 C27.738,10.600 26.787,10.911 25.764,10.911 C24.753,10.911 23.813,10.607 23.025,10.086 L23.021,10.086 L8.541,1.735 C7.744,1.195 6.788,0.876 5.758,0.876 C3.076,0.876 0.895,3.007 0.781,5.676 L0.769,5.686 L0.769,33.648 L0.777,33.649 C0.777,33.710 0.769,33.767 0.769,33.826 C0.769,36.598 3.002,38.845 5.758,38.845 C8.511,38.845 10.744,36.598 10.744,33.826 C10.744,33.777 10.740,33.733 10.738,33.684 L10.738,13.880 L23.320,20.242 C23.449,20.313 23.582,20.381 23.719,20.442 L23.823,20.495 L23.824,20.493 C24.420,20.746 25.075,20.886 25.764,20.886 C26.451,20.886 27.105,20.747 27.700,20.494 L27.700,20.495 L27.715,20.488 C27.891,20.412 28.061,20.325 28.229,20.229 L40.795,13.876 L40.795,43.666 C40.791,43.730 40.784,43.794 40.784,43.859 C40.784,46.630 43.017,48.877 45.771,48.877 C48.525,48.877 50.759,46.630 50.759,43.859 C50.759,43.859 50.759,43.857 50.759,43.855 L50.762,43.859 L50.762,6.035 Z"/>
</svg>