<svg 
 xmlns="http://www.w3.org/2000/svg"
 xmlns:xlink="http://www.w3.org/1999/xlink"
 width="127px" height="113px">
<path fill-rule="evenodd"  fill="rgb(255, 229, 0)"
 d="M36.139,112.852 C33.373,112.852 29.978,110.886 28.596,108.485 L1.386,61.216 C0.003,58.815 0.003,54.885 1.386,52.482 L28.596,5.216 C29.978,2.813 33.373,0.848 36.139,0.848 L90.559,0.848 C93.324,0.848 96.718,2.813 98.102,5.216 L125.311,52.482 C126.694,54.885 126.694,58.815 125.311,61.216 L98.102,108.485 C96.718,110.886 93.324,112.852 90.559,112.852 L36.139,112.852 Z"/>
<path fill-rule="evenodd"  fill="rgb(255, 255, 255)"
 d="M75.719,32.330 L53.088,32.330 C51.885,32.330 50.905,33.316 50.904,34.529 L50.904,79.134 C50.905,80.344 51.885,81.329 53.088,81.331 L75.721,81.331 C76.928,81.329 77.904,80.342 77.904,79.132 L77.904,34.529 C77.904,33.316 76.928,32.330 75.719,32.330 ZM66.813,75.995 C66.808,77.332 65.726,78.422 64.408,78.424 C63.082,78.422 62.000,77.332 61.998,76.004 C62.000,74.667 63.078,73.582 64.403,73.579 C65.731,73.582 66.808,74.667 66.813,75.995 ZM75.471,71.557 L53.340,71.557 L53.340,37.014 L75.469,37.014 L75.471,71.557 Z"/>
<path fill-rule="evenodd"  opacity="0.498" fill="rgb(255, 255, 255)"
 d="M97.906,108.048 L124.965,61.179 C126.340,58.798 126.340,54.902 124.965,52.519 L97.906,5.653 C96.531,3.269 93.156,1.322 90.406,1.322 L36.291,1.322 C34.777,1.322 33.084,1.925 31.629,2.853 L94.802,111.021 C96.105,110.243 97.241,109.200 97.906,108.048 Z"/>
</svg>