<svg 
 xmlns="http://www.w3.org/2000/svg"
 xmlns:xlink="http://www.w3.org/1999/xlink"
 width="127px" height="113px">
<path fill-rule="evenodd"  fill="rgb(255, 229, 0)"
 d="M36.232,112.852 C33.467,112.852 30.073,110.886 28.690,108.485 L1.479,61.216 C0.097,58.815 0.097,54.885 1.479,52.482 L28.690,5.216 C30.073,2.813 33.467,0.848 36.232,0.848 L90.652,0.848 C93.418,0.848 96.811,2.813 98.194,5.216 L125.405,52.482 C126.788,54.885 126.788,58.815 125.405,61.216 L98.194,108.485 C96.811,110.886 93.418,112.852 90.652,112.852 L36.232,112.852 Z"/>
<path fill-rule="evenodd"  fill="rgb(255, 255, 255)"
 d="M60.062,79.104 L64.214,79.104 L64.214,68.408 L60.062,68.408 L60.062,79.104 ZM58.445,66.635 L59.019,66.635 L59.019,66.634 L65.261,66.634 L65.831,66.635 L65.831,65.374 L58.445,65.374 L58.445,66.635 ZM76.116,49.701 L76.116,44.633 L76.115,41.953 L76.116,36.765 C76.115,36.407 75.815,36.103 75.464,36.103 L46.185,36.103 C45.824,36.103 45.534,36.401 45.532,36.767 L45.532,41.952 L45.534,44.634 L45.532,44.634 L45.532,49.702 C45.534,50.061 45.830,50.364 46.185,50.366 L75.467,50.366 C75.815,50.364 76.115,50.061 76.116,49.701 ZM79.218,43.016 L77.857,43.016 L77.857,43.569 L79.218,43.569 C80.747,43.574 81.988,44.841 81.988,46.395 L81.988,50.217 C81.992,50.230 81.992,50.263 81.992,50.298 C81.968,51.833 80.670,53.602 79.265,54.022 L64.970,58.718 C63.201,59.342 61.926,61.126 61.883,63.050 L61.883,63.597 L62.425,63.597 L62.425,63.044 L62.421,62.981 C62.445,61.419 63.746,59.651 65.153,59.236 L79.445,54.541 C81.217,53.917 82.490,52.133 82.532,50.210 L82.532,46.397 C82.527,44.537 81.039,43.020 79.218,43.016 Z"/>
<path fill-rule="evenodd"  opacity="0.498" fill="rgb(255, 255, 255)"
 d="M98.000,108.048 L125.059,61.179 C126.434,58.798 126.434,54.902 125.059,52.519 L98.000,5.653 C96.625,3.269 93.250,1.322 90.500,1.322 L36.385,1.322 C35.269,1.322 34.057,1.653 32.910,2.193 L96.015,110.243 C96.833,109.597 97.536,108.852 98.000,108.048 Z"/>
</svg>